<?xml version="1.0" standalone="no"?><!DOCTYPE svg PUBLIC "-//W3C//DTD SVG 1.1//EN" "http://www.w3.org/Graphics/SVG/1.1/DTD/svg11.dtd"><svg t="1590052983305" class="icon" viewBox="0 0 1024 1024" version="1.1" xmlns="http://www.w3.org/2000/svg" p-id="2616" xmlns:xlink="http://www.w3.org/1999/xlink" width="200" height="200"><defs><style type="text/css"></style></defs><path d="M510.496 173.056L173.152 509.696h81.76V896h130.528v-113.92a80 80 0 0 1 80-80h93.28a80 80 0 0 1 80 80V896h130.656V509.728h81.056L510.496 173.088zM512.992 160c-0.416-0.192-0.832-0.128-1.28-0.128l-1.408-23.168-1.504 23.168a28.768 28.768 0 0 1-0.96-0.096l5.12 0.224zM121.28 520.32l-2.784-2.944-3.136-2.592-3.68-2.72a317.12 317.12 0 0 1 9.6 8.288z m129.152 387.36l-2.752-3.232-3.136-2.88c1.024 0.96 1.984 1.92 2.88 3.04 1.088 0.96 2.112 1.984 3.008 3.072z m147.04-7.424l-3.84 3.136-3.296 3.68a31.904 31.904 0 0 1 3.744-3.552 28.928 28.928 0 0 1 3.392-3.264z m-11.52 16v6.144c0 0.256 0.064 0.48 0.096 0.704a34.24 34.24 0 0 1 1.184-6.88h-1.28z m252.32-0.704H636.8c0.64 2.208 1.12 4.48 1.344 6.88l0.128-1.216v-5.664z m-4.384-8.48l-3.296-3.68-3.84-3.136c1.184 0.96 2.336 2.048 3.392 3.264a31.904 31.904 0 0 1 3.744 3.552z m145.92-5.6l-3.2 2.88-2.816 3.328a30.656 30.656 0 0 1 3.04-3.104 29.888 29.888 0 0 1 2.976-3.104z m171.936-381.472c11.552 11.616 10.88 31.136-1.76 43.648a29.664 29.664 0 0 1-22.08 10.08h-94.56v351.904a31.36 31.36 0 0 1-10.72 23.424A29.6 29.6 0 0 1 800 960h-191.552a29.696 29.696 0 0 1-22.112-10.144 31.232 31.232 0 0 1-12.032-24.32v-9.984c0.096-0.64 0.416-1.28 0.416-1.984v-131.52a16 16 0 0 0-16-15.968h-93.28a16 16 0 0 0-16 16v131.52c0 0.96 0.384 1.728 0.544 2.624v9.344a31.232 31.232 0 0 1-12.032 24.288 29.696 29.696 0 0 1-22.112 10.144H224.288a29.6 29.6 0 0 1-22.656-10.944 31.488 31.488 0 0 1-10.72-23.424V573.728H96.352a29.824 29.824 0 0 1-21.888-9.728c-0.192-0.16-0.416-0.224-0.608-0.416-12.48-12.48-13.216-31.968-1.6-43.584L489.376 103.68A27.872 27.872 0 0 1 507.84 96h5.12a28.192 28.192 0 0 1 18.496 7.712L951.776 520z" p-id="2617"></path></svg>